<svg width="128" height="128" viewBox="0 0 128 128" fill="none" xmlns="http://www.w3.org/2000/svg">
<path d="M63.7771 0.00133862C74.7043 -0.0700767 85.8456 2.71512 95.9871 8.57118C107.2 15.07 115.699 24.4254 121.127 35.1377L68.1337 32.3525C53.1357 31.4955 38.8519 39.9225 33.924 54.0628L14.2124 23.7826C26.4964 8.49976 44.9225 0.072754 63.7771 0.00133862ZM10.4272 28.9246L34.4954 76.2729C41.2802 89.6276 55.6354 97.7689 70.4905 94.9837L54.0642 127.192C23.4254 122.479 0 95.9836 0 63.9895C0 51.0633 3.85662 38.9941 10.4272 28.9246ZM123.698 40.9937C134.91 69.8455 123.698 103.411 95.9871 119.408C84.7743 125.907 72.4188 128.549 60.4205 127.906L89.3451 83.4145C97.5583 70.7739 97.4155 54.277 87.6311 42.8505L123.698 40.9937ZM63.9914 42.4221C75.9184 42.4221 85.5599 52.0631 85.5599 63.9895C85.5599 75.9158 75.9184 85.5569 63.9914 85.5569C52.0644 85.5569 42.4229 75.9158 42.4229 63.9895C42.4229 52.0631 52.0644 42.4221 63.9914 42.4221Z" fill="url(#paint0_linear)"/>
<defs>
<linearGradient id="paint0_linear" x1="0" y1="0" x2="153.38" y2="78.2551" gradientUnits="userSpaceOnUse">
<stop stop-color="#C95BA3"/>
<stop offset="1" stop-color="#9253C1"/>
</linearGradient>
</defs>
</svg>
