<svg width="25" height="25" viewBox="0 0 25 25" fill="none" xmlns="http://www.w3.org/2000/svg">
<g clip-path="url(#clip0)">
<path d="M21.9907 0C23.6136 0 24.9225 1.18438 24.9999 2.57813V25L21.9099 22.6323L20.2132 21.2386L18.3618 19.7823L19.1351 22.0792H2.93168C1.3134 22.0792 -0.00012207 20.9698 -0.00012207 19.5V2.58333C-0.00012207 1.18958 1.31573 0.003125 2.93747 0.003125L21.9908 0L21.9907 0ZM14.929 5.9198H14.8944L14.6612 6.12813C17.054 6.75313 18.2117 7.72918 18.2117 7.72918C16.6696 7.03335 15.2799 6.68543 13.8902 6.5448C12.886 6.40418 11.8818 6.47813 11.0334 6.5448H10.8026C10.2601 6.5448 9.10581 6.75313 7.55912 7.31043C7.02009 7.52188 6.71074 7.66043 6.71074 7.66043C6.71074 7.66043 7.86731 6.61668 10.4159 6.05938L10.2601 5.91875C10.2601 5.91875 8.33016 5.85208 6.24673 7.24167C6.24673 7.24167 4.16331 10.5167 4.16331 14.5542C4.16331 14.5542 5.31758 16.3667 8.48368 16.4354C8.48368 16.4354 8.94539 15.8802 9.41286 15.3917C7.6353 14.9042 6.94275 13.9292 6.94275 13.9292C6.94275 13.9292 7.09741 13.9979 7.32942 14.1375H7.39867C7.4333 14.1375 7.44945 14.1531 7.46793 14.1688V14.175C7.4864 14.1917 7.50255 14.2063 7.53718 14.2063C7.91809 14.3479 8.29899 14.4875 8.61064 14.6229C9.14853 14.8334 9.83992 15.0427 10.6883 15.1813C11.7618 15.3219 12.9922 15.3896 14.3935 15.1813C15.086 15.0406 15.7786 14.9031 16.4711 14.624C16.9213 14.4156 17.4753 14.2073 18.0836 13.8563C18.0836 13.8563 17.3911 14.8313 15.5385 15.3188C15.9194 15.8042 16.4561 16.3604 16.4561 16.3604C19.6234 16.2979 20.8538 14.4854 20.9231 14.5625C20.9231 10.5312 18.8281 7.25 18.8281 7.25C16.9409 5.98542 15.1749 5.9375 14.8632 5.9375L14.9279 5.91668L14.929 5.9198ZM15.1229 10.5167C15.9344 10.5167 16.5889 11.1417 16.5889 11.9073C16.5889 12.6781 15.9309 13.3031 15.1229 13.3031C14.315 13.3031 13.657 12.6781 13.657 11.9136C13.6593 11.1427 14.3184 10.5198 15.1229 10.5198V10.5167ZM9.87915 10.5167C10.6871 10.5167 11.3404 11.1417 11.3404 11.9073C11.3404 12.6781 10.6825 13.3031 9.87452 13.3031C9.06653 13.3031 8.40861 12.6781 8.40861 11.9136C8.40861 11.1427 9.06653 10.5198 9.87452 10.5198L9.87915 10.5167Z" fill="#F1E3FF"/>
</g>
<defs>
<clipPath id="clip0">
<rect width="25" height="25" fill="white"/>
</clipPath>
</defs>
</svg>
