<svg width="18" height="16" viewBox="0 0 18 16" fill="none" xmlns="http://www.w3.org/2000/svg">
<path d="M8.84367 11.59L9.931 10.4004L8.50623 8.84149L7.4189 10.0311V10.6055H8.31876V11.59H8.84367ZM12.968 4.20592C12.8837 4.11362 12.7431 4.12387 12.6587 4.21617L9.37796 7.80566C9.2936 7.89796 9.28423 8.0518 9.36859 8.1441C9.45295 8.2364 9.59355 8.22615 9.67792 8.13384L12.9586 4.54436C13.043 4.45205 13.0524 4.29822 12.968 4.20592ZM13.7179 10.2978V12.2464C13.7179 13.877 12.5087 15.2 11.0183 15.2H3.21957C1.72918 15.2 0.519997 13.877 0.519997 12.2464V3.71365C0.519997 2.08299 1.72918 0.76001 3.21957 0.76001H11.0183C11.3933 0.76001 11.7682 0.842055 12.115 1.0164C12.1994 1.05742 12.265 1.14973 12.2838 1.25228C12.3025 1.36509 12.2744 1.46765 12.1994 1.5497L11.7401 2.05223C11.6557 2.14453 11.5432 2.17529 11.4401 2.13427C11.2995 2.09325 11.1589 2.07274 11.0183 2.07274H3.21957C2.3947 2.07274 1.71981 2.81115 1.71981 3.71365V12.2464C1.71981 13.1489 2.3947 13.8873 3.21957 13.8873H11.0183C11.8432 13.8873 12.5181 13.1489 12.5181 12.2464V10.9542C12.5181 10.8721 12.5462 10.7901 12.6025 10.7285L13.2024 10.0722C13.2961 9.96961 13.4179 9.9491 13.5304 10.0004C13.6429 10.0517 13.7179 10.1645 13.7179 10.2978ZM12.818 2.7291L15.5176 5.68274L9.21861 12.5746H6.51904V9.62092L12.818 2.7291ZM16.9799 4.08285L16.1175 5.02637L13.4179 2.07274L14.2803 1.12921C14.6271 0.749754 15.2083 0.749754 15.5551 1.12921L16.9799 2.68808C17.3267 3.06754 17.3267 3.70339 16.9799 4.08285Z" fill="url(#iconGradient45)"/>
<defs>
<linearGradient id="iconGradient" x1="10" y1="3" x2="10" y2="17" gradientUnits="userSpaceOnUse">
<stop stop-color="#C95BA3"/>
<stop offset="1" stop-color="#9253C1"/>
</linearGradient>
<linearGradient id="iconGradient45" x1="0.621948" y1="0" x2="25.0879" y2="12.9393" gradientUnits="userSpaceOnUse">
<stop stop-color="#C95BA3"/>
<stop offset="1" stop-color="#9253C1"/>
</linearGradient>
<clipPath id="clip0">
</clipPath>
</defs>
</svg>
