<svg width="18" height="18" viewBox="0 0 18 18" fill="none" xmlns="http://www.w3.org/2000/svg">
<path d="M9.00035 17.999H17.1003C17.5971 17.999 18.0003 17.5773 18.0003 17.0576C18.0003 16.538 17.5971 16.1163 17.1003 16.1163H9.00035C8.50355 16.1163 8.10035 16.538 8.10035 17.0576C8.10035 17.5773 8.50355 17.999 9.00035 17.999ZM12.414 0.860366L1.16405 12.6269C1.05425 12.7408 0.968747 12.8904 0.927347 13.0646L0.0273469 16.8298C-0.00775313 16.971 -0.0104531 17.1292 0.0273469 17.2864C0.147947 17.7909 0.636647 18.0978 1.11905 17.9717L4.71905 17.0303C4.86935 16.9918 5.01605 16.9089 5.13755 16.7828L16.3875 5.01629C16.9356 4.44303 17.2101 3.68903 17.2101 2.9388C17.2101 2.18857 16.9356 1.43457 16.3875 0.861307C15.8394 0.288044 15.1176 0 14.4003 0C13.683 0 12.9621 0.287102 12.414 0.860366V0.860366ZM13.6866 2.19139C13.8837 1.98524 14.1402 1.88264 14.4003 1.88264C14.6604 1.88264 14.9169 1.98524 15.114 2.19139C15.3111 2.39754 15.4092 2.66582 15.4092 2.93786C15.4092 3.2099 15.3111 3.47818 15.114 3.68432L4.04045 15.2663L2.13695 15.7643L2.61305 13.7734L13.6866 2.19139Z" fill="url(#paint0_linear)"/>
<defs>
<linearGradient id="paint0_linear" x1="0" y1="0" x2="21.5693" y2="11.005" gradientUnits="userSpaceOnUse">
<stop stop-color="#C95BA3"/>
<stop offset="1" stop-color="#9253C1"/>
</linearGradient>
</defs>
</svg>
