<svg width="48" height="68" viewBox="0 0 48 68" fill="none" xmlns="http://www.w3.org/2000/svg">
<g clip-path="url(#clip0)">
<path fill-rule="evenodd" clip-rule="evenodd" d="M34.7224 26.0765L45.9888 30.9026C46.9413 31.3107 48.0008 30.6119 48.0008 29.5757V23.1555L48.0008 15.6712C48.0008 15.0948 47.658 14.5737 47.1287 14.3456L14.1216 0.11788C13.7919 -0.0242418 13.421 -0.0383944 13.0814 0.0781866L1.55146 4.03647C0.307504 4.46352 0.236083 6.19592 1.44067 6.72393L32.9833 20.5501C33.5082 20.7801 33.8473 21.299 33.8473 21.8722V24.7495C33.8473 25.3271 34.1915 25.849 34.7224 26.0765ZM13.2817 41.5704L2.0154 36.7108C1.06246 36.2997 9.32902e-05 36.9985 9.32902e-05 38.0363V44.8444L6.10352e-05 52.3287C5.69422e-05 52.905 0.342907 53.4262 0.872197 53.6543L33.8793 67.882C34.209 68.0241 34.5798 68.0383 34.9194 67.9217L46.4494 63.9634C47.6934 63.5363 47.7648 61.8039 46.5602 61.2759L15.0176 47.4498C14.4927 47.2197 14.1536 46.7009 14.1536 46.1277L14.1536 42.8959C14.1535 42.3197 13.8109 41.7986 13.2817 41.5704ZM0.144364 11.3012V30.0065L33.8595 44.5831L33.8595 50.4912L47.7817 56.4844V37.6804L14.0665 23.0755V17.3054L0.144364 11.3012Z" fill="url(#paint0_linear)"/>
</g>
<defs>
<linearGradient id="paint0_linear" x1="6.10352e-05" y1="-3.05176e-05" x2="64.1679" y2="23.11" gradientUnits="userSpaceOnUse">
<stop stop-color="#C95BA3"/>
<stop offset="1" stop-color="#9253C1"/>
</linearGradient>
<clipPath id="clip0">
<rect width="48" height="68" fill="white"/>
</clipPath>
</defs>
</svg>
