<svg width="21" height="18" viewBox="0 0 21 18" fill="none" xmlns="http://www.w3.org/2000/svg">
<path d="M8.87556 0.876022C8.70165 1.17415 8.35382 1.77663 8.06656 2.27041C7.94544 2.48004 7.74357 2.82941 7.61624 3.0468C7.49047 3.26419 7.27152 3.64151 7.13022 3.88529C6.85538 4.35889 6.6209 4.76261 6.26065 5.38372C6.13798 5.59645 5.93612 5.94272 5.815 6.15234C5.69388 6.36197 5.49202 6.71134 5.36469 6.92873C5.01531 7.53276 4.37711 8.63367 4.06966 9.16472C3.97339 9.33087 3.85693 9.52962 3.8119 9.60726C3.76687 9.68335 3.62711 9.92558 3.49978 10.143C3.37401 10.3604 3.18457 10.6895 3.07742 10.8728C2.97183 11.056 2.79326 11.3634 2.68301 11.556C2.57121 11.7485 2.43301 11.9861 2.37556 12.0839C2.31811 12.1818 2.15662 12.4613 2.01531 12.705C1.87401 12.9488 1.70786 13.2345 1.64575 13.3417C1.58364 13.4488 1.46718 13.6507 1.38488 13.792C1.30413 13.9333 1.16593 14.1709 1.07898 14.3199C0.687673 14.9907 0.512207 15.2982 0.512207 15.3137C0.512207 15.323 0.583636 15.4581 0.669039 15.6134C0.827424 15.8975 1.27463 16.7065 1.73736 17.5419L1.98581 17.9922L10.4454 17.9953L18.9051 18L18.9796 17.8711C19.02 17.8012 19.1457 17.5932 19.2575 17.4099C19.3693 17.2267 19.5324 16.9565 19.6194 16.8121C19.7063 16.6662 19.8787 16.3836 19.9998 16.1833C20.4066 15.514 20.5122 15.3354 20.5122 15.3168C20.5122 15.2997 20.4175 15.1274 19.8088 14.0482C19.6551 13.7749 19.4051 13.3308 19.2544 13.0622C19.1038 12.7936 18.8507 12.3464 18.6954 12.0684C18.5386 11.7905 18.2871 11.3433 18.1364 11.0746C17.9843 10.806 17.7358 10.3619 17.5821 10.0886C17.2824 9.55757 16.9392 8.94889 16.4672 8.10884C15.9221 7.13835 15.6426 6.64302 15.3492 6.12129C15.0557 5.59956 14.7762 5.10422 14.2312 4.13374C13.7964 3.36201 13.4299 2.70985 13.1209 2.16172C12.9703 1.89309 12.7172 1.44123 12.5588 1.16018L12.27 0.647764L10.6411 0.643106L9.01221 0.640001L8.87556 0.876022ZM11.9377 1.23316C11.9454 1.24403 12.0898 1.49713 12.256 1.79682C12.4221 2.09495 12.6892 2.57476 12.8507 2.86047C13.0107 3.14618 13.2684 3.60735 13.4237 3.88529C13.579 4.16324 13.8414 4.63063 14.006 4.92565C14.1721 5.22068 14.433 5.68807 14.5883 5.96601C14.8631 6.45669 15.1271 6.92873 15.7451 8.0312C15.9097 8.32623 16.1721 8.79361 16.3274 9.07156C16.4827 9.3495 16.7451 9.81689 16.9097 10.1119C17.0743 10.4069 17.3367 10.8743 17.492 11.1523C17.6473 11.4302 17.9097 11.8976 18.0743 12.1926C18.4532 12.8696 18.8864 13.6445 19.1985 14.2019C19.3321 14.441 19.4537 14.7314 19.4506 14.733C19.446 14.7392 7.74357 14.7392 7.73736 14.733C7.7327 14.7299 7.82432 14.5699 8.18612 13.955C8.54016 13.3494 8.87556 12.7796 8.92991 12.6864L8.9827 12.5964H12.3709H15.7591L15.4703 12.0793C15.3119 11.7967 15.0495 11.3262 14.8864 11.0358C14.2451 9.88832 13.8926 9.25944 13.1287 7.89145C12.593 6.93184 12.2374 6.2983 11.9532 5.78744C11.7948 5.50484 11.5308 5.03435 11.3662 4.73932C11.2016 4.44429 10.9377 3.97225 10.7793 3.6912C10.3895 2.99245 9.93457 2.18035 9.64109 1.65241L9.3973 1.21453H10.6597C11.6504 1.21453 11.9253 1.21918 11.9377 1.23316ZM9.06811 2.0406C9.15351 2.18811 9.3414 2.5142 9.68612 3.10891C9.79326 3.29214 9.97028 3.59958 10.0821 3.79213C10.1923 3.98467 10.3166 4.1974 10.3569 4.26573C10.3973 4.33405 10.4967 4.50485 10.5774 4.64615C10.7979 5.02814 11.1721 5.67564 11.2653 5.83403C11.3103 5.91011 11.4268 6.11042 11.5231 6.27657C11.7529 6.67563 12.0836 7.24705 12.3678 7.73617C12.4936 7.95356 12.6877 8.28896 12.7995 8.4815C12.9097 8.67405 13.0339 8.88678 13.0743 8.9551C13.1147 9.02342 13.2141 9.19423 13.2948 9.33553C13.5153 9.72062 13.8895 10.365 13.9827 10.5234C14.065 10.6616 14.1628 10.8324 14.638 11.6538C14.77 11.8836 14.8756 12.0731 14.8725 12.0746C14.8693 12.0762 14.3134 12.0731 13.6364 12.0684L12.4035 12.0606L12.2016 11.7113C12.0898 11.5187 11.9516 11.2812 11.8942 11.1833C11.8367 11.0855 11.6364 10.7423 11.4516 10.4225C11.2653 10.1026 11.0666 9.75944 11.0091 9.66161C10.9516 9.56379 10.815 9.32932 10.7063 9.14143C10.2839 8.41473 10.1209 8.13213 9.87556 7.71288C9.73581 7.47375 9.52308 7.1073 9.40196 6.89767C9.02929 6.25483 8.9827 6.17874 8.96718 6.17253C8.95786 6.17098 8.89264 6.26725 8.82121 6.38992C8.74978 6.51103 8.58985 6.78122 8.46562 6.99084C8.23581 7.37903 8.03084 7.72841 7.71407 8.26411C7.43767 8.73305 7.14109 9.23305 6.92525 9.5995C6.81655 9.78273 6.61003 10.1321 6.46718 10.3759C6.32432 10.6197 6.1178 10.969 6.0091 11.1523C5.79171 11.5187 5.506 12.0016 5.22805 12.4752C4.98426 12.8883 4.72649 13.3246 4.4827 13.7376C4.12867 14.337 3.89419 14.7345 3.62556 15.1895C3.48115 15.4333 3.27618 15.7826 3.16749 15.9659C3.05879 16.1491 2.87711 16.4565 2.76376 16.6491C2.65041 16.8416 2.5091 17.0808 2.44854 17.1817C2.38954 17.2826 2.33519 17.3603 2.32898 17.3525C2.31655 17.3385 2.27152 17.2609 1.80879 16.4317C1.64419 16.1367 1.44544 15.7811 1.36624 15.6398L1.22183 15.3836L1.25289 15.3292C1.26842 15.2997 1.506 14.8867 1.77773 14.4131C2.04947 13.9395 2.37867 13.3665 2.50755 13.1398C2.90662 12.4442 3.33364 11.6973 3.65196 11.1445C4.47494 9.7113 4.80258 9.13833 5.41128 8.07778C5.54016 7.85108 5.81345 7.37593 6.01687 7.0219C6.72649 5.78434 7.11935 5.10112 7.35227 4.69274C7.60693 4.2502 7.96873 3.61667 8.57898 2.55457C8.79016 2.18501 8.96873 1.88533 8.97494 1.88998C8.98115 1.89309 9.02308 1.96141 9.06811 2.0406ZM9.02308 7.32003C9.0619 7.38214 9.35227 7.85884 9.66593 8.38057L10.2374 9.32621L10.2001 9.39764C10.1644 9.4613 10.0308 9.69111 9.44854 10.6864C9.33674 10.879 9.13022 11.2315 8.99047 11.4706C8.85072 11.7097 8.65506 12.0451 8.55569 12.2159C8.45631 12.3867 8.26065 12.7221 8.1209 12.9613C7.61935 13.8215 7.50134 14.0233 7.256 14.4442C7.11935 14.6786 6.94388 14.9799 6.86624 15.1118C6.7886 15.2438 6.73115 15.3587 6.73736 15.3649C6.74357 15.3712 8.72649 15.3696 11.1426 15.3603C13.5588 15.351 16.4967 15.3448 17.6721 15.3479L19.8088 15.3525L19.197 16.3618C18.86 16.9162 18.5147 17.4193 18.5069 17.4317C18.496 17.4503 10.7731 17.427 10.7731 17.427C6.49202 17.4317 2.98581 17.4332 2.9827 17.4317C2.9796 17.4286 3.01842 17.3587 3.06655 17.2749C3.11624 17.191 3.24202 16.9752 3.34606 16.7966C3.4501 16.6165 3.64885 16.2749 3.7886 16.0357C3.92836 15.7966 4.13798 15.4364 4.25444 15.2361C4.82277 14.2578 4.93612 14.0637 5.17059 13.66C5.31034 13.4209 5.5091 13.0777 5.61314 12.8991C5.71718 12.719 5.90351 12.4023 6.02463 12.1926C6.14575 11.983 6.33208 11.6647 6.43612 11.4861C6.54016 11.306 6.73892 10.9644 6.87867 10.7253C7.11314 10.3215 7.22649 10.1274 7.79482 9.14919C7.91128 8.94889 8.1209 8.58864 8.26065 8.34952C8.40041 8.11039 8.60072 7.76412 8.70786 7.5809C8.94078 7.17873 8.93301 7.1927 8.94388 7.20047C8.94854 7.20357 8.98426 7.25637 9.02308 7.32003ZM10.6131 10.1476C10.6628 10.2346 10.801 10.4706 10.9175 10.6709C11.197 11.1523 11.6116 11.8665 11.6815 11.983L11.7358 12.0762L11.1985 12.0793C10.902 12.0824 9.5743 12.0901 9.19231 12.0839L9.27152 12.0606L9.36935 11.8976C9.4237 11.8075 9.5914 11.5249 9.74357 11.2687C9.89575 11.0125 10.0914 10.6833 10.1768 10.5389C10.2638 10.393 10.3725 10.2097 10.419 10.1305C10.4656 10.0529 10.5075 9.98769 10.5122 9.98769C10.5169 9.98769 10.5619 10.0591 10.6131 10.1476Z" fill="url(#iconGradient45)"/>
<defs>
<linearGradient id="iconGradient45" x1="0.621948" y1="0" x2="25.0879" y2="12.9393" gradientUnits="userSpaceOnUse">
<stop stop-color="#C95BA3"/>
<stop offset="1" stop-color="#9253C1"/>
</linearGradient>
<clipPath id="clip0">
</clipPath>
</defs>
</svg>
