<svg width="20" height="20" viewBox="0 0 20 20" fill="none" xmlns="http://www.w3.org/2000/svg">
<g clip-path="url(#clip0)">
<path d="M14.5719 2.0517L14.3218 2.3023V2.0517H13.0897C12.5342 2.91013 11.3613 3.50351 9.99971 3.50351C8.63858 3.50351 7.46577 2.91013 6.91026 2.0517H5.67816V2.3023L5.42756 2.0517L0.996399 6.48535L3.42023 8.91117L5.67816 6.65225V17.9479H14.3208V6.65275L16.5792 8.91167L19.0025 6.48535L14.5719 2.0517Z" fill="url(#paint0_linear)"/>
<path d="M14.3208 18.9443H5.67821C5.12818 18.9443 4.68177 18.4979 4.68177 17.9478V9.05862L4.12476 9.61563C3.93793 9.80296 3.68434 9.90759 3.41978 9.90759C3.15573 9.90759 2.90164 9.80247 2.7148 9.61563L0.29097 7.18981C-0.0976409 6.8007 -0.0976409 6.17045 0.29097 5.78084L4.72312 1.34719C4.93935 1.13047 5.25173 1.02534 5.55266 1.06321C5.59401 1.05823 5.63586 1.05524 5.67821 1.05524H6.9103C7.2481 1.05524 7.56347 1.22662 7.74681 1.51011C8.13891 2.11594 9.02325 2.50705 9.99976 2.50705C10.9763 2.50705 11.8611 2.11594 12.2532 1.51011C12.4365 1.22662 12.7514 1.05524 13.0897 1.05524H14.3218C14.3642 1.05524 14.406 1.05773 14.4474 1.06321C14.4882 1.05823 14.5296 1.05524 14.5714 1.05524C14.5719 1.05524 14.5719 1.05524 14.5719 1.05524C14.836 1.05524 15.0896 1.16036 15.2769 1.34719L19.7081 5.78034C20.0967 6.16945 20.0967 6.7997 19.7081 7.18931L17.2847 9.61563C17.0979 9.80247 16.8443 9.90759 16.5802 9.90759C16.5797 9.90759 16.5797 9.90759 16.5797 9.90759C16.3157 9.90809 16.0621 9.80296 15.8753 9.61613L15.3177 9.05813V17.9478C15.3172 18.4984 14.8713 18.9443 14.3208 18.9443ZM6.67465 16.9514H13.3244V6.65273C13.3244 6.24967 13.567 5.88647 13.9392 5.73202C14.3118 5.57707 14.7398 5.66276 15.0253 5.94824L16.5787 7.50169L17.5941 6.48532L14.406 3.29523C14.2471 3.30968 14.0906 3.28477 13.9407 3.22299C13.8365 3.18014 13.7424 3.12035 13.6607 3.04811H13.575C12.7524 3.95487 11.4341 4.49992 9.99976 4.49992C8.56539 4.49992 7.2476 3.95487 6.42454 3.04811H6.33885C6.25764 3.12035 6.16347 3.17964 6.05935 3.22299C5.90839 3.28526 5.74796 3.30719 5.59301 3.29523L2.40441 6.48582L3.41978 7.50219L4.97273 5.94824C5.25771 5.66276 5.68618 5.57757 6.05885 5.73202C6.43152 5.88647 6.67415 6.24967 6.67415 6.65273V16.9514H6.67465Z" fill="url(#paint1_linear)"/>
</g>
<defs>
<linearGradient id="iconGradient" x1="9.99946" y1="2.0517" x2="9.99946" y2="17.9479" gradientUnits="userSpaceOnUse">
<stop stop-color="#C95BA3"/>
<stop offset="1" stop-color="#9253C1"/>
</linearGradient>
<linearGradient id="iconGradient" x1="9.99951" y1="1.05524" x2="9.99951" y2="18.9443" gradientUnits="userSpaceOnUse">
<stop stop-color="#C95BA3"/>
<stop offset="1" stop-color="#9253C1"/>
</linearGradient>
<clipPath id="clip0">
<rect width="20" height="20" fill="white"/>
</clipPath>
</defs>
</svg>
