<svg width="20" height="16" viewBox="0 0 20 16" fill="none" xmlns="http://www.w3.org/2000/svg">
<path d="M18.1976 0.142853C19.1051 0.142853 19.8476 0.864728 19.8476 1.74702V13.9387C19.8476 14.821 19.1051 15.5429 18.1976 15.5429H1.69761C0.790107 15.5429 0.0476074 14.821 0.0476074 13.9387V1.74702C0.0476074 0.864728 0.790107 0.142853 1.69761 0.142853H18.1976ZM1.69761 1.42619C1.52229 1.42619 1.36761 1.57658 1.36761 1.74702V3.99285H18.5276V1.74702C18.5276 1.57658 18.3729 1.42619 18.1976 1.42619H1.69761ZM18.1976 14.2595C18.3729 14.2595 18.5276 14.1091 18.5276 13.9387V7.84285H1.36761V13.9387C1.36761 14.1091 1.52229 14.2595 1.69761 14.2595H18.1976ZM2.68761 12.9762V11.6929H5.32761V12.9762H2.68761ZM6.64761 12.9762V11.6929H10.6076V12.9762H6.64761Z" fill="#F1E3FF"/>
</svg>
