<svg width="22" height="20" viewBox="0 0 22 20" fill="none" xmlns="http://www.w3.org/2000/svg">
<path fill-rule="evenodd" clip-rule="evenodd" d="M0.621948 20H21.3537V0H0.621948V20ZM6.10545 5.49474C6.7185 5.49474 7.11793 5.78294 7.39295 6.24092L8.45373 5.01307C7.979 4.39796 6.89203 4 6.05552 4C4.46926 4 3.10728 5.21758 2.85764 6.72416C2.62027 8.13362 3.41995 8.72425 4.54375 9.20591C4.58667 9.22291 4.63015 9.23987 4.67392 9.25694C5.34401 9.51824 6.08398 9.80679 5.94338 10.6888C5.83043 11.3876 5.25584 12.0019 4.5061 12.0019C3.71952 12.0019 3.1703 11.375 3.0328 10.6762L1.65853 11.7966C2.13326 12.8452 2.96977 13.5685 4.26955 13.5685C6.19303 13.5685 7.57957 12.2791 7.87914 10.459C8.17138 8.67504 6.97461 8.15383 5.98186 7.72147C5.27852 7.41515 4.67759 7.15344 4.78111 6.51886C4.88097 5.92902 5.51858 5.49474 6.10545 5.49474ZM10.013 10.6154L10.5376 7.41034H8.78849L8.21391 10.8925C7.92661 12.6155 8.70173 13.5196 10.5254 13.5196C12.349 13.5196 13.4237 12.6155 13.7101 10.8917L14.2847 7.40955H12.5356L12.0117 10.6154C11.8988 11.2905 11.6492 12.0975 10.7627 12.0975C9.87546 12.0975 9.90084 11.2905 10.013 10.6154ZM17.7323 8.71162C18.631 8.71162 19.0312 9.56677 18.9068 10.3619H18.906C18.7807 11.1578 18.0818 12.0248 17.1822 12.0248C16.2827 12.0248 15.8833 11.1578 16.0085 10.3619C16.1329 9.56677 16.8319 8.71162 17.7323 8.71162ZM18.3936 7.21767C17.7445 7.21767 17.057 7.49403 16.5823 7.95201L16.669 7.41034H14.9207L13.4351 16.4838H15.1834L15.7834 12.7726H15.808C16.0838 13.2543 16.6952 13.5196 17.3197 13.5196C19.1311 13.5196 20.4178 11.953 20.6797 10.3382C20.9424 8.78347 20.1305 7.21767 18.3936 7.21767Z" fill="url(#iconGradient45)"/>
<defs>
<linearGradient id="iconGradient45" x1="0.621948" y1="0" x2="25.0879" y2="12.9393" gradientUnits="userSpaceOnUse">
<stop stop-color="#C95BA3"/>
<stop offset="1" stop-color="#9253C1"/>
</linearGradient>
<clipPath id="clip0">
<rect width="20" height="20" fill="white"/>
</clipPath>
</defs>
</svg>
