<svg width="25" height="20" viewBox="0 0 25 20" fill="none" xmlns="http://www.w3.org/2000/svg">
<g clip-path="url(#clip0)">
<path d="M25.0001 2.36538C24.0823 2.76923 23.0913 3.03846 22.0563 3.15865C23.1157 2.53365 23.9261 1.54327 24.3117 0.365385C23.3207 0.942308 22.2223 1.36538 21.0555 1.59135C20.1182 0.610577 18.7855 0 17.3111 0C14.4797 0 12.1852 2.25962 12.1852 5.04808C12.1852 5.44231 12.2291 5.82692 12.317 6.19712C8.05513 5.98558 4.27657 3.97596 1.74777 0.918269C1.3084 1.66346 1.05454 2.53365 1.05454 3.45673C1.05454 5.20673 1.95769 6.75481 3.33437 7.65865C2.49469 7.63462 1.70383 7.40385 1.01061 7.02885C1.01061 7.04808 1.01061 7.07212 1.01061 7.09135C1.01061 9.53846 2.77784 11.5817 5.12601 12.0433C4.69641 12.1587 4.2424 12.2212 3.77374 12.2212C3.44177 12.2212 3.12445 12.1875 2.80713 12.1298C3.4613 14.1346 5.35546 15.5962 7.59623 15.6394C5.83877 16.9952 3.63216 17.8029 1.22541 17.8029C0.81045 17.8029 0.405255 17.7788 6.10352e-05 17.7308C2.27501 19.1683 4.96979 20 7.86474 20C17.2965 20 22.4566 12.3029 22.4566 5.62981C22.4566 5.40865 22.4517 5.19231 22.442 4.97596C23.4427 4.26923 24.3117 3.37981 25.0001 2.36538Z" fill="#F1E3FF"/>
</g>
<defs>
<clipPath id="clip0">
<rect width="25" height="20" fill="white"/>
</clipPath>
</defs>
</svg>
